<svg width="24" height="24" viewBox="0 0 24 24" fill="none" xmlns="http://www.w3.org/2000/svg">
<path d="M20.1136 3.80632C17.9371 1.62986 15.0398 0.428589 11.9603 0.428589C8.88066 0.428589 5.9832 1.62986 3.80645 3.80632C1.62998 5.98298 0.428711 8.88005 0.428711 11.9601C0.428711 15.0402 1.62998 17.9372 3.80645 20.1135C5.98311 22.2899 8.88018 23.4912 11.9603 23.4912C15.0403 23.4912 17.9373 22.2899 20.1136 20.1135C22.2898 17.937 23.4913 15.0397 23.4913 11.9601C23.4913 8.88054 22.29 5.98308 20.1136 3.80632ZM21.925 11.1911H13.8146L19.5466 5.45915C20.8873 7.02546 21.7568 9.01462 21.925 11.1911ZM12.7287 1.9948C14.9052 2.16303 16.8943 3.02781 18.4606 4.37307L12.7287 10.105V1.9948ZM11.9601 21.9533C6.44932 21.9533 1.96641 17.4704 1.96641 11.9596C1.96641 6.70818 6.04087 2.38884 11.1915 1.9948L11.1913 12.7282H21.9252C21.5311 17.8786 17.2118 21.9533 11.9604 21.9533H11.9601Z" fill="#6C757D"/>
</svg>
