<svg width="25" height="25" viewBox="0 0 25 25" fill="none" xmlns="http://www.w3.org/2000/svg">
<path d="M14.5499 9.4248C14.5499 9.69659 14.6579 9.95732 14.8502 10.1496C15.0422 10.3417 15.303 10.4498 15.575 10.4498H22.679C22.9735 10.4498 23.2538 10.3241 23.4495 10.104C23.6454 9.8841 23.7379 9.59093 23.7036 9.29855C23.4472 7.26549 22.5218 5.3757 21.0728 3.92648C19.6239 2.47745 17.734 1.55201 15.7007 1.29567C15.4083 1.26153 15.1152 1.35384 14.8952 1.54972C14.6753 1.74542 14.5494 2.02599 14.5496 2.32048L14.5499 9.4248ZM11.3464 3.34618C9.07245 3.63324 6.98656 4.7561 5.4953 6.49657C4.00404 8.23705 3.21371 10.4704 3.2786 12.7612C3.3692 15.1086 4.34213 17.3352 6.00326 18.9966C7.66439 20.6577 9.8912 21.6308 12.2386 21.7212C14.5295 21.7861 16.7628 20.9959 18.5033 19.5045C20.2437 18.0132 21.3668 15.9273 21.6537 13.6535C21.6882 13.3607 21.5961 13.0671 21.4002 12.8467C21.2045 12.6264 20.9237 12.5001 20.6288 12.5001H13.5253C13.2533 12.5001 12.9926 12.392 12.8005 12.1999C12.6082 12.0076 12.5003 11.7469 12.5003 11.4751V4.37108C12.5001 4.0762 12.374 3.79564 12.1535 3.59974C11.9332 3.40386 11.6395 3.31174 11.3467 3.34626L11.3464 3.34618Z" fill="#6C757D"/>
</svg>
